<svg width="10" height="10" viewBox="0 0 10 10" fill="none" xmlns="http://www.w3.org/2000/svg"><defs><linearGradient id="atbghtb7jdc" x1="0%" y1="0%" x2="100%" y2="0%"><stop offset="100%" style="stop-color: rgb(255, 61, 23); stop-opacity: 1;"></stop> <stop offset="100%" style="stop-color: rgb(218, 218, 218); stop-opacity: 1;"></stop></linearGradient></defs> <path d="M1.91865 9.91352C2.10327 10.0643 2.33742 10.0125 2.6166 9.80044L4.99861 7.96757L7.38513 9.80044C7.66431 10.0125 7.89395 10.0643 8.08307 9.91352C8.26769 9.76746 8.30822 9.52716 8.19564 9.1832L7.25455 6.25249L9.65907 4.44318C9.93825 4.23586 10.0508 4.01912 9.97878 3.78354C9.90673 3.55737 9.6951 3.44429 9.34838 3.449L6.399 3.46785L5.50293 0.523004C5.39486 0.174335 5.23276 0 4.99861 0C4.76897 0 4.60686 0.174335 4.49879 0.523004L3.60272 3.46785L0.653348 3.449C0.306628 3.44429 0.0949929 3.55737 0.0229471 3.78354C-0.0536016 4.01912 0.0634729 4.23586 0.34265 4.44318L2.74718 6.25249L1.80608 9.1832C1.69351 9.52716 1.73404 9.76746 1.91865 9.91352Z" fill="url(#atbghtb7jdc)"></path></svg>